<svg width="16" height="17" viewBox="0 0 16 17" fill="none" xmlns="http://www.w3.org/2000/svg">
<path d="M12.0467 7.37996C11.92 7.37996 11.7933 7.33329 11.6933 7.23329L8 3.53996L4.30667 7.23329C4.11334 7.42663 3.79334 7.42663 3.6 7.23329C3.40667 7.03996 3.40667 6.71996 3.6 6.52663L7.64667 2.47996C7.84 2.28663 8.16 2.28663 8.35334 2.47996L12.4 6.52663C12.5933 6.71996 12.5933 7.03996 12.4 7.23329C12.3067 7.33329 12.1733 7.37996 12.0467 7.37996Z" fill="#028874"/>
<path d="M8 14.6667C7.72667 14.6667 7.5 14.44 7.5 14.1667V2.94666C7.5 2.67332 7.72667 2.44666 8 2.44666C8.27333 2.44666 8.5 2.67332 8.5 2.94666V14.1667C8.5 14.44 8.27333 14.6667 8 14.6667Z" fill="#028874"/>
</svg>
