<svg width="24" height="25" viewBox="0 0 24 25" fill="none" xmlns="http://www.w3.org/2000/svg">
<path d="M20.19 14.56L19.06 12.68C18.81 12.27 18.59 11.48 18.59 11V9.13005C18.59 5.50005 15.64 2.55005 12.02 2.55005C8.38999 2.56005 5.43999 5.50005 5.43999 9.13005V10.99C5.43999 11.47 5.21999 12.26 4.97999 12.67L3.84999 14.55C3.41999 15.28 3.31999 16.11 3.58999 16.83C3.85999 17.56 4.46999 18.14 5.26999 18.4C6.34999 18.76 7.43999 19.02 8.54999 19.21C8.65999 19.23 8.76999 19.24 8.87999 19.26C9.01999 19.2801 9.16999 19.3 9.31999 19.32C9.57999 19.3601 9.83999 19.39 10.11 19.41C10.74 19.47 11.38 19.5 12.02 19.5C12.65 19.5 13.28 19.47 13.9 19.41C14.13 19.39 14.36 19.3701 14.58 19.34C14.76 19.32 14.94 19.3001 15.12 19.2701C15.23 19.26 15.34 19.24 15.45 19.22C16.57 19.04 17.68 18.76 18.76 18.4C19.53 18.14 20.12 17.56 20.4 16.82C20.68 16.07 20.6 15.25 20.19 14.56ZM12.75 10.5C12.75 10.92 12.41 11.26 11.99 11.26C11.57 11.26 11.23 10.92 11.23 10.5V7.40005C11.23 6.98005 11.57 6.64005 11.99 6.64005C12.41 6.64005 12.75 6.98005 12.75 7.40005V10.5Z" fill="#001F3C"/>
<path d="M14.83 20.51C14.41 21.67 13.3 22.5 12 22.5C11.21 22.5 10.43 22.18 9.87999 21.61C9.55999 21.31 9.31999 20.91 9.17999 20.5C9.30999 20.52 9.43999 20.53 9.57999 20.55C9.80999 20.58 10.05 20.61 10.29 20.63C10.86 20.68 11.44 20.71 12.02 20.71C12.59 20.71 13.16 20.68 13.72 20.63C13.93 20.61 14.14 20.6 14.34 20.57C14.5 20.55 14.66 20.53 14.83 20.51Z" fill="#001F3C"/>
</svg>
