<svg width="18" height="19" viewBox="0 0 18 19" fill="none" xmlns="http://www.w3.org/2000/svg">
<path d="M3.75 11.5625C2.61 11.5625 1.6875 10.64 1.6875 9.5C1.6875 8.36 2.61 7.4375 3.75 7.4375C4.89 7.4375 5.8125 8.36 5.8125 9.5C5.8125 10.64 4.89 11.5625 3.75 11.5625ZM3.75 8.5625C3.2325 8.5625 2.8125 8.9825 2.8125 9.5C2.8125 10.0175 3.2325 10.4375 3.75 10.4375C4.2675 10.4375 4.6875 10.0175 4.6875 9.5C4.6875 8.9825 4.2675 8.5625 3.75 8.5625Z" fill="#001F3C"/>
<path d="M14.25 11.5625C13.11 11.5625 12.1875 10.64 12.1875 9.5C12.1875 8.36 13.11 7.4375 14.25 7.4375C15.39 7.4375 16.3125 8.36 16.3125 9.5C16.3125 10.64 15.39 11.5625 14.25 11.5625ZM14.25 8.5625C13.7325 8.5625 13.3125 8.9825 13.3125 9.5C13.3125 10.0175 13.7325 10.4375 14.25 10.4375C14.7675 10.4375 15.1875 10.0175 15.1875 9.5C15.1875 8.9825 14.7675 8.5625 14.25 8.5625Z" fill="#001F3C"/>
<path d="M9 11.5625C7.86 11.5625 6.9375 10.64 6.9375 9.5C6.9375 8.36 7.86 7.4375 9 7.4375C10.14 7.4375 11.0625 8.36 11.0625 9.5C11.0625 10.64 10.14 11.5625 9 11.5625ZM9 8.5625C8.4825 8.5625 8.0625 8.9825 8.0625 9.5C8.0625 10.0175 8.4825 10.4375 9 10.4375C9.5175 10.4375 9.9375 10.0175 9.9375 9.5C9.9375 8.9825 9.5175 8.5625 9 8.5625Z" fill="#001F3C"/>
</svg>
