<svg width="18" height="18" viewBox="0 0 18 18" fill="none" xmlns="http://www.w3.org/2000/svg">
<path d="M6.01242 9.41889L6.00095 9.40483L5.98849 9.39164L3.18349 6.42164L3.17859 6.41645L3.17354 6.4114C2.98895 6.2268 2.81305 5.96092 2.68393 5.66857C2.55377 5.37387 2.48749 5.08949 2.48749 4.87495V3.14995C2.48749 2.20958 3.18736 1.51245 4.04999 1.51245H13.95C14.8138 1.51245 15.5125 2.21109 15.5125 3.07495V4.72495C15.5125 5.02547 15.4202 5.37292 15.2667 5.70655C15.1163 6.03335 14.9237 6.31079 14.7539 6.4838L11.5236 9.3411C11.2897 9.5384 11.111 9.82078 10.9913 10.0989C10.869 10.3832 10.7875 10.7112 10.7875 11.025V14.25C10.7875 14.4854 10.7111 14.7642 10.5719 15.022C10.4316 15.2819 10.2512 15.4766 10.0852 15.5762L10.0783 15.5804L10.0715 15.5848L9.04015 16.2499C8.78427 16.4083 8.49477 16.4875 8.20499 16.4875C7.9313 16.4875 7.66156 16.4197 7.40384 16.2796C6.90071 15.9986 6.60499 15.4972 6.60499 14.9325V10.9575C6.60499 10.6777 6.5174 10.3745 6.4152 10.1237C6.31102 9.86812 6.16808 9.6097 6.01242 9.41889ZM10.0156 15.4761C10.2303 15.3433 10.386 15.12 10.482 14.9359C10.582 14.7443 10.67 14.4942 10.67 14.25V11.025C10.67 10.3545 11.0061 9.61567 11.4441 9.2478L11.4442 9.24793L11.454 9.23928L14.664 6.39678L14.6753 6.38673L14.686 6.376C14.8694 6.19267 15.0403 5.92033 15.1645 5.6473C15.2881 5.37549 15.395 5.03865 15.395 4.71745V3.07495C15.395 2.28131 14.7511 1.63745 13.9575 1.63745H4.04999C3.21424 1.63745 2.61249 2.33974 2.61249 3.14995V4.87495C2.61249 5.11659 2.70078 5.39644 2.80422 5.62762C2.91074 5.86565 3.06705 6.12737 3.26401 6.32606L6.10318 9.31427C6.43296 9.72851 6.73749 10.3989 6.73749 10.95V14.925C6.73749 15.6787 7.26375 16.0525 7.48075 16.1679C7.93906 16.4173 8.51239 16.4271 8.96954 16.1458L8.96958 16.1458L8.9771 16.141L10.0156 15.4761Z" fill="white" stroke="white"/>
<path d="M4.44332 7.46604L4.44418 7.46466L8.14082 1.54104C8.1409 1.54092 8.14097 1.5408 8.14105 1.54068C8.1624 1.50711 8.20045 1.50352 8.22392 1.51827C8.25782 1.53958 8.26149 1.57782 8.24668 1.60137L8.24582 1.60274L4.54832 7.52774L4.5483 7.52773L4.5454 7.53248C4.53755 7.54539 4.52895 7.55247 4.52182 7.55649C4.51433 7.5607 4.50685 7.56245 4.5 7.56245C4.49619 7.56245 4.49136 7.56206 4.48335 7.55979C4.4775 7.55813 4.46891 7.55517 4.45712 7.54976C4.44775 7.54112 4.44034 7.529 4.43678 7.51362C4.43218 7.49381 4.43598 7.47771 4.44332 7.46604Z" fill="white" stroke="white"/>
</svg>
