<svg width="15" height="16" viewBox="0 0 15 16" fill="none" xmlns="http://www.w3.org/2000/svg">
<path d="M4.51242 8.41889L4.50095 8.40483L4.48849 8.39164L1.68349 5.42164L1.67859 5.41645L1.67354 5.4114C1.48895 5.2268 1.31305 4.96092 1.18393 4.66857C1.05377 4.37387 0.987488 4.08949 0.987488 3.87495V2.14995C0.987488 1.20958 1.68736 0.512451 2.54999 0.512451H12.45C13.3138 0.512451 14.0125 1.21109 14.0125 2.07495V3.72495C14.0125 4.02547 13.9202 4.37292 13.7667 4.70655C13.6163 5.03335 13.4237 5.31079 13.2539 5.4838L10.0236 8.3411C9.78967 8.5384 9.61099 8.82078 9.49132 9.09889C9.36901 9.38316 9.28749 9.71123 9.28749 10.025V13.25C9.28749 13.4854 9.21115 13.7642 9.07192 14.022C8.93158 14.2819 8.7512 14.4766 8.58524 14.5762L8.5783 14.5804L8.57149 14.5848L7.54015 15.2499C7.28427 15.4083 6.99477 15.4875 6.70499 15.4875C6.4313 15.4875 6.16156 15.4197 5.90384 15.2796C5.40071 14.9986 5.10499 14.4972 5.10499 13.9325V9.95745C5.10499 9.6777 5.0174 9.3745 4.9152 9.12374C4.81102 8.86812 4.66808 8.6097 4.51242 8.41889ZM8.51562 14.4761C8.7303 14.3433 8.88597 14.12 8.98203 13.9359C9.082 13.7443 9.16999 13.4942 9.16999 13.25V10.025C9.16999 9.3545 9.50614 8.61567 9.94408 8.2478L9.94419 8.24793L9.95396 8.23928L13.164 5.39678L13.1753 5.38673L13.186 5.376C13.3694 5.19267 13.5403 4.92033 13.6645 4.6473C13.7881 4.37549 13.895 4.03865 13.895 3.71745V2.07495C13.895 1.28131 13.2511 0.637451 12.4575 0.637451H2.54999C1.71424 0.637451 1.11249 1.33974 1.11249 2.14995V3.87495C1.11249 4.11659 1.20078 4.39644 1.30422 4.62762C1.41074 4.86565 1.56705 5.12737 1.76401 5.32606L4.60318 8.31427C4.93296 8.72851 5.23749 9.39894 5.23749 9.94995V13.925C5.23749 14.6787 5.76375 15.0525 5.98075 15.1679C6.43906 15.4173 7.01239 15.4271 7.46954 15.1458L7.46958 15.1458L7.4771 15.141L8.51562 14.4761Z" fill="#424656" stroke="#424656"/>
</svg>
