<svg width="24" height="25" viewBox="0 0 24 25" fill="none" xmlns="http://www.w3.org/2000/svg">
<mask id="path-1-inside-1_89_5745" fill="white">
<path d="M11.5 22.25C5.85 22.25 1.25 17.65 1.25 12C1.25 6.35 5.85 1.75 11.5 1.75C17.15 1.75 21.75 6.35 21.75 12C21.75 17.65 17.15 22.25 11.5 22.25ZM11.5 3.25C6.67 3.25 2.75 7.18 2.75 12C2.75 16.82 6.67 20.75 11.5 20.75C16.33 20.75 20.25 16.82 20.25 12C20.25 7.18 16.33 3.25 11.5 3.25Z"/>
</mask>
<path d="M11.5 22.25C5.85 22.25 1.25 17.65 1.25 12C1.25 6.35 5.85 1.75 11.5 1.75C17.15 1.75 21.75 6.35 21.75 12C21.75 17.65 17.15 22.25 11.5 22.25ZM11.5 3.25C6.67 3.25 2.75 7.18 2.75 12C2.75 16.82 6.67 20.75 11.5 20.75C16.33 20.75 20.25 16.82 20.25 12C20.25 7.18 16.33 3.25 11.5 3.25Z" fill="#424656"/>
<path d="M11.5 20.75C6.67843 20.75 2.75 16.8216 2.75 12H-0.25C-0.25 18.4784 5.02157 23.75 11.5 23.75V20.75ZM2.75 12C2.75 7.17843 6.67843 3.25 11.5 3.25V0.25C5.02157 0.25 -0.25 5.52157 -0.25 12H2.75ZM11.5 3.25C16.3216 3.25 20.25 7.17843 20.25 12H23.25C23.25 5.52157 17.9784 0.25 11.5 0.25V3.25ZM20.25 12C20.25 16.8216 16.3216 20.75 11.5 20.75V23.75C17.9784 23.75 23.25 18.4784 23.25 12H20.25ZM11.5 1.75C5.84046 1.75 1.25 6.35269 1.25 12H4.25C4.25 8.00731 7.49954 4.75 11.5 4.75V1.75ZM1.25 12C1.25 17.6473 5.84046 22.25 11.5 22.25V19.25C7.49954 19.25 4.25 15.9927 4.25 12H1.25ZM11.5 22.25C17.1595 22.25 21.75 17.6473 21.75 12H18.75C18.75 15.9927 15.5005 19.25 11.5 19.25V22.25ZM21.75 12C21.75 6.35269 17.1595 1.75 11.5 1.75V4.75C15.5005 4.75 18.75 8.00731 18.75 12H21.75Z" fill="#424656" mask="url(#path-1-inside-1_89_5745)"/>
<mask id="path-3-inside-2_89_5745" fill="white">
<path d="M22 23.2499C21.81 23.2499 21.62 23.1799 21.47 23.0299L19.47 21.0299C19.18 20.7399 19.18 20.2599 19.47 19.9699C19.76 19.6799 20.24 19.6799 20.53 19.9699L22.53 21.9699C22.82 22.2599 22.82 22.7399 22.53 23.0299C22.38 23.1799 22.19 23.2499 22 23.2499Z"/>
</mask>
<path d="M22 23.2499C21.81 23.2499 21.62 23.1799 21.47 23.0299L19.47 21.0299C19.18 20.7399 19.18 20.2599 19.47 19.9699C19.76 19.6799 20.24 19.6799 20.53 19.9699L22.53 21.9699C22.82 22.2599 22.82 22.7399 22.53 23.0299C22.38 23.1799 22.19 23.2499 22 23.2499Z" fill="#424656"/>
<path d="M21.47 23.0299L20.4093 24.0906L21.47 23.0299ZM19.47 21.0299L20.5307 19.9693L19.47 21.0299ZM20.53 19.9699L19.4693 21.0306L20.53 19.9699ZM22.53 21.9699L23.5907 20.9093L22.53 21.9699ZM22 21.7499C22.1864 21.7499 22.3845 21.8232 22.5307 21.9693L20.4093 24.0906C20.8555 24.5367 21.4336 24.7499 22 24.7499V21.7499ZM22.5307 21.9693L20.5307 19.9693L18.4093 22.0906L20.4093 24.0906L22.5307 21.9693ZM20.5307 19.9693C20.8264 20.2651 20.8264 20.7348 20.5307 21.0306L18.4093 18.9093C17.5336 19.7851 17.5336 21.2148 18.4093 22.0906L20.5307 19.9693ZM20.5307 21.0306C20.2349 21.3264 19.7651 21.3264 19.4693 21.0306L21.5907 18.9093C20.7149 18.0335 19.2851 18.0335 18.4093 18.9093L20.5307 21.0306ZM19.4693 21.0306L21.4693 23.0306L23.5907 20.9093L21.5907 18.9093L19.4693 21.0306ZM21.4693 23.0306C21.1736 22.7348 21.1736 22.2651 21.4693 21.9693L23.5907 24.0906C24.4665 23.2148 24.4665 21.7851 23.5907 20.9093L21.4693 23.0306ZM21.4693 21.9693C21.6155 21.8232 21.8136 21.7499 22 21.7499V24.7499C22.5664 24.7499 23.1445 24.5367 23.5907 24.0906L21.4693 21.9693Z" fill="#424656" mask="url(#path-3-inside-2_89_5745)"/>
</svg>
