<svg width="19" height="18" viewBox="0 0 19 18" fill="none" xmlns="http://www.w3.org/2000/svg">
<mask id="path-1-inside-1_1069_36177" fill="white">
<path d="M9.5 9.5625C7.1225 9.5625 5.1875 7.6275 5.1875 5.25C5.1875 2.8725 7.1225 0.9375 9.5 0.9375C11.8775 0.9375 13.8125 2.8725 13.8125 5.25C13.8125 7.6275 11.8775 9.5625 9.5 9.5625ZM9.5 2.0625C7.745 2.0625 6.3125 3.495 6.3125 5.25C6.3125 7.005 7.745 8.4375 9.5 8.4375C11.255 8.4375 12.6875 7.005 12.6875 5.25C12.6875 3.495 11.255 2.0625 9.5 2.0625Z"/>
</mask>
<path d="M9.5 9.5625C7.1225 9.5625 5.1875 7.6275 5.1875 5.25C5.1875 2.8725 7.1225 0.9375 9.5 0.9375C11.8775 0.9375 13.8125 2.8725 13.8125 5.25C13.8125 7.6275 11.8775 9.5625 9.5 9.5625ZM9.5 2.0625C7.745 2.0625 6.3125 3.495 6.3125 5.25C6.3125 7.005 7.745 8.4375 9.5 8.4375C11.255 8.4375 12.6875 7.005 12.6875 5.25C12.6875 3.495 11.255 2.0625 9.5 2.0625Z" fill="white"/>
<path d="M9.5 8.0625C7.95093 8.0625 6.6875 6.79907 6.6875 5.25H3.6875C3.6875 8.45593 6.29407 11.0625 9.5 11.0625V8.0625ZM6.6875 5.25C6.6875 3.70093 7.95093 2.4375 9.5 2.4375V-0.5625C6.29407 -0.5625 3.6875 2.04407 3.6875 5.25H6.6875ZM9.5 2.4375C11.0491 2.4375 12.3125 3.70093 12.3125 5.25H15.3125C15.3125 2.04407 12.7059 -0.5625 9.5 -0.5625V2.4375ZM12.3125 5.25C12.3125 6.79907 11.0491 8.0625 9.5 8.0625V11.0625C12.7059 11.0625 15.3125 8.45593 15.3125 5.25H12.3125ZM9.5 0.5625C6.91657 0.5625 4.8125 2.66657 4.8125 5.25H7.8125C7.8125 4.32343 8.57343 3.5625 9.5 3.5625V0.5625ZM4.8125 5.25C4.8125 7.83343 6.91657 9.9375 9.5 9.9375V6.9375C8.57343 6.9375 7.8125 6.17657 7.8125 5.25H4.8125ZM9.5 9.9375C12.0834 9.9375 14.1875 7.83343 14.1875 5.25H11.1875C11.1875 6.17657 10.4266 6.9375 9.5 6.9375V9.9375ZM14.1875 5.25C14.1875 2.66657 12.0834 0.5625 9.5 0.5625V3.5625C10.4266 3.5625 11.1875 4.32343 11.1875 5.25H14.1875Z" fill="white" mask="url(#path-1-inside-1_1069_36177)"/>
<mask id="path-3-inside-2_1069_36177" fill="white">
<path d="M15.9426 17.0625C15.6351 17.0625 15.3801 16.8075 15.3801 16.5C15.3801 13.9125 12.7401 11.8125 9.50011 11.8125C6.26011 11.8125 3.62012 13.9125 3.62012 16.5C3.62012 16.8075 3.36512 17.0625 3.05762 17.0625C2.75012 17.0625 2.49512 16.8075 2.49512 16.5C2.49512 13.2975 5.63761 10.6875 9.50011 10.6875C13.3626 10.6875 16.5051 13.2975 16.5051 16.5C16.5051 16.8075 16.2501 17.0625 15.9426 17.0625Z"/>
</mask>
<path d="M15.9426 17.0625C15.6351 17.0625 15.3801 16.8075 15.3801 16.5C15.3801 13.9125 12.7401 11.8125 9.50011 11.8125C6.26011 11.8125 3.62012 13.9125 3.62012 16.5C3.62012 16.8075 3.36512 17.0625 3.05762 17.0625C2.75012 17.0625 2.49512 16.8075 2.49512 16.5C2.49512 13.2975 5.63761 10.6875 9.50011 10.6875C13.3626 10.6875 16.5051 13.2975 16.5051 16.5C16.5051 16.8075 16.2501 17.0625 15.9426 17.0625Z" fill="white"/>
<path d="M15.9426 15.5625C16.4635 15.5625 16.8801 15.9791 16.8801 16.5H13.8801C13.8801 17.6359 14.8067 18.5625 15.9426 18.5625V15.5625ZM16.8801 16.5C16.8801 12.7839 13.2325 10.3125 9.50011 10.3125V13.3125C12.2477 13.3125 13.8801 15.0411 13.8801 16.5H16.8801ZM9.50011 10.3125C5.76772 10.3125 2.12012 12.7839 2.12012 16.5H5.12012C5.12012 15.0411 6.75251 13.3125 9.50011 13.3125V10.3125ZM2.12012 16.5C2.12012 15.9791 2.53669 15.5625 3.05762 15.5625L3.05762 18.5625C4.19354 18.5625 5.12012 17.6359 5.12012 16.5H2.12012ZM3.05762 15.5625C3.57854 15.5625 3.99512 15.9791 3.99512 16.5H0.995117C0.995117 17.6359 1.92169 18.5625 3.05762 18.5625L3.05762 15.5625ZM3.99512 16.5C3.99512 14.3754 6.19231 12.1875 9.50011 12.1875V9.1875C5.08292 9.1875 0.995117 12.2196 0.995117 16.5H3.99512ZM9.50011 12.1875C12.8079 12.1875 15.0051 14.3754 15.0051 16.5H18.0051C18.0051 12.2196 13.9173 9.1875 9.50011 9.1875V12.1875ZM15.0051 16.5C15.0051 15.9791 15.4217 15.5625 15.9426 15.5625V18.5625C17.0785 18.5625 18.0051 17.6359 18.0051 16.5H15.0051Z" fill="white" mask="url(#path-3-inside-2_1069_36177)"/>
</svg>
